<svg width="26" height="26" viewBox="0 0 26 26" fill="none" xmlns="http://www.w3.org/2000/svg">
<path d="M3.99615 12.1004C3.28094 12.1004 2.70361 12.5852 2.70361 13.1858L2.70361 21.1454C2.70361 21.746 3.28094 22.2309 3.99615 22.2309L18.6448 22.2309C19.3601 22.2309 19.9374 21.746 19.9374 21.1454L19.9374 16.526L19.9374 13.1858C19.9374 12.5852 19.3601 12.1004 18.6448 12.1004L3.99615 12.1004Z" stroke="black" stroke-width="1.57222" stroke-miterlimit="10" stroke-linecap="round" stroke-linejoin="round"/>
<path d="M18.6448 12.1005L18.6448 12.8866L18.6448 12.1005ZM19.9373 13.1859L20.7234 13.1859L19.9373 13.1859ZM22.5602 13.0362L23.2518 13.4099L23.2518 13.4099L22.5602 13.0362ZM8.22168 3.79582L7.53009 3.42209L7.53009 3.42209L8.22168 3.79582ZM9.81315 3.53382L9.47412 4.24306L9.47412 4.24306L9.81315 3.53382ZM22.872 9.77612L23.211 9.06687L23.211 9.06687L22.872 9.77612ZM23.5851 11.1397L22.8935 10.766L22.8935 10.766L23.5851 11.1397ZM4.35006 10.9604L5.04165 11.3341L5.04165 11.3341L4.35006 10.9604ZM22.0722 13.9393L21.7332 14.6485L22.4081 14.9712L22.7638 14.313L22.0722 13.9393ZM6.70882 6.59542L6.01723 6.22169L5.62452 6.94842L6.36979 7.30467L6.70882 6.59542ZM4.39996 12.1005L3.73803 12.5245L3.96998 12.8866H4.39996V12.1005ZM19.9373 17.8899H19.1512V20.9982L20.6289 18.2637L19.9373 17.8899ZM19.8912 12.8968L19.144 13.141L19.8912 12.8968ZM22.8992 12.327L7.53587 4.98308L6.85781 6.40157L22.2212 13.7454L22.8992 12.327ZM7.88843 6.06605L8.91328 4.16954L7.53009 3.42209L6.50525 5.3186L7.88843 6.06605ZM8.91328 4.16954C8.88825 4.21585 8.87704 4.17732 8.99716 4.15754C9.11278 4.13851 9.28763 4.15392 9.47412 4.24306L10.1522 2.82457C9.7011 2.60895 9.20173 2.53048 8.74177 2.6062C8.2863 2.68119 7.79815 2.92604 7.53009 3.42209L8.91328 4.16954ZM9.47412 4.24306L22.533 10.4854L23.211 9.06687L10.1522 2.82457L9.47412 4.24306ZM22.533 10.4854C22.7203 10.5749 22.8225 10.692 22.8621 10.7678C22.8999 10.8401 22.8629 10.8225 22.8935 10.766L24.2766 11.5134C24.5502 11.0072 24.4755 10.4602 24.2554 10.0393C24.0371 9.62193 23.6613 9.28212 23.211 9.06687L22.533 10.4854ZM22.8935 10.766L21.8686 12.6625L23.2518 13.4099L24.2766 11.5134L22.8935 10.766ZM5.04165 11.3341L7.88843 6.06605L6.50525 5.3186L3.65847 10.5867L5.04165 11.3341ZM21.8686 12.6625L21.3806 13.5656L22.7638 14.313L23.2518 13.4099L21.8686 12.6625ZM7.40041 6.96914L7.88843 6.06605L6.50525 5.3186L6.01723 6.22169L7.40041 6.96914ZM5.06189 11.6764C4.9878 11.5608 4.98532 11.4384 5.04165 11.3341L3.65847 10.5867C3.31174 11.2283 3.37711 11.9611 3.73803 12.5245L5.06189 11.6764ZM19.1512 13.1859V17.8899H20.7234V13.1859H19.1512ZM21.8686 12.6625L19.2457 17.5162L20.6289 18.2637L23.2518 13.4099L21.8686 12.6625ZM4.39996 12.8866H18.2254V11.3144H4.39996V12.8866ZM18.2254 12.8866H18.6448V11.3144H18.2254V12.8866ZM18.5644 11.3912L7.04785 5.88617L6.36979 7.30467L17.8863 12.8097L18.5644 11.3912ZM22.4112 13.2301L20.2302 12.1875L19.5522 13.606L21.7332 14.6485L22.4112 13.2301ZM18.6448 12.8866C18.9704 12.8866 19.1196 13.0662 19.144 13.141L20.6384 12.6525C20.3623 11.8079 19.511 11.3144 18.6448 11.3144L18.6448 12.8866ZM19.144 13.141C19.1489 13.1559 19.1512 13.1705 19.1512 13.1859L20.7234 13.1859C20.7234 13.0009 20.6937 12.8216 20.6384 12.6525L19.144 13.141Z" fill="black"/>
<path d="M18.6447 12.1005L18.6447 12.8866L18.6447 12.1005ZM22.5601 13.0362L23.2517 13.41C23.3541 13.2206 23.3743 12.9976 23.3076 12.7929C23.241 12.5882 23.0934 12.4198 22.8992 12.327L22.5601 13.0362ZM7.19676 5.69235L7.53579 4.98311C7.15773 4.80239 6.70438 4.94998 6.50517 5.31863L7.19676 5.69235ZM22.0721 13.9393L21.7331 14.6486L22.408 14.9712L22.7637 14.3131L22.0721 13.9393ZM6.70874 6.59545L6.01715 6.22172L5.62444 6.94845L6.36971 7.3047L6.70874 6.59545ZM18.2253 12.1005L17.8862 12.8097L18.047 12.8866H18.2253V12.1005ZM19.8911 12.8968L19.1439 13.141L19.2485 13.4609L19.5521 13.606L19.8911 12.8968ZM22.8992 12.327L7.53579 4.98311L6.85773 6.4016L22.2211 13.7455L22.8992 12.327ZM21.8685 12.6625L21.3805 13.5656L22.7637 14.3131L23.2517 13.41L21.8685 12.6625ZM7.40033 6.96918L7.88835 6.06608L6.50517 5.31863L6.01715 6.22172L7.40033 6.96918ZM18.2253 12.8866H18.6447V11.3144H18.2253V12.8866ZM18.5643 11.3912L7.04777 5.8862L6.36971 7.3047L17.8862 12.8097L18.5643 11.3912ZM22.4111 13.2301L20.2301 12.1875L19.5521 13.606L21.7331 14.6486L22.4111 13.2301ZM18.6447 12.8866C18.9703 12.8866 19.1195 13.0663 19.1439 13.141L20.6383 12.6525C20.3622 11.8079 19.5109 11.3144 18.6447 11.3144L18.6447 12.8866Z" fill="black"/>
<path d="M18.6449 12.1005L18.6449 12.8866L18.6449 12.1005ZM19.9374 13.1859L20.7235 13.1859L19.9374 13.1859ZM4.35012 10.9604L5.04171 11.3341L5.04172 11.3341L4.35012 10.9604ZM22.0723 13.9393L22.7638 14.313L23.1566 13.5863L22.4113 13.2301L22.0723 13.9393ZM6.70888 6.59543L7.04791 5.88618L6.37295 5.56354L6.01729 6.2217L6.70888 6.59543ZM4.40002 12.1005L3.73809 12.5245L3.97004 12.8866H4.40002V12.1005ZM19.9374 17.8899H19.1513V20.9982L20.629 18.2637L19.9374 17.8899ZM19.8913 12.8968L19.1441 13.141L19.8913 12.8968ZM5.06195 11.6764C4.98786 11.5608 4.98538 11.4384 5.04171 11.3341L3.65853 10.5867C3.31181 11.2283 3.37718 11.9611 3.73809 12.5245L5.06195 11.6764ZM19.1513 13.1859V17.8899H20.7235V13.1859H19.1513ZM4.40002 12.8866H18.2254V11.3144H4.40002V12.8866ZM18.2254 12.8866H18.6449V11.3144H18.2254V12.8866ZM18.5644 11.3912L7.04791 5.88618L6.36985 7.30467L17.8864 12.8097L18.5644 11.3912ZM22.4113 13.2301L20.2303 12.1875L19.5522 13.606L21.7332 14.6486L22.4113 13.2301ZM18.6449 12.8866C18.9705 12.8866 19.1196 13.0662 19.1441 13.141L20.6385 12.6525C20.3624 11.8079 19.5111 11.3144 18.6449 11.3144L18.6449 12.8866ZM19.1441 13.141C19.1489 13.1559 19.1513 13.1705 19.1513 13.1859L20.7235 13.1859C20.7235 13.0009 20.6937 12.8216 20.6385 12.6525L19.1441 13.141ZM6.01729 6.2217L3.65853 10.5867L5.04172 11.3341L7.40048 6.96915L6.01729 6.2217ZM21.3807 13.5656L19.2458 17.5162L20.629 18.2637L22.7638 14.313L21.3807 13.5656Z" fill="black"/>
<path fill-rule="evenodd" clip-rule="evenodd" d="M22.5602 13.0362L7.19684 5.69232L8.22168 3.79582C8.46471 3.34607 9.17557 3.22905 9.81315 3.53382L22.872 9.77612C23.5096 10.0809 23.8281 10.69 23.585 11.1397L22.5602 13.0362Z" stroke="black" stroke-width="1.57222" stroke-miterlimit="10" stroke-linecap="round" stroke-linejoin="round"/>
<path d="M8.10369 16.6591L5.9205 16.6591C5.63106 16.6591 5.39642 16.4245 5.39642 16.135V15.1571C5.39642 14.8677 5.63106 14.633 5.92049 14.633L8.10368 14.633C8.39312 14.633 8.62776 14.8676 8.62776 15.1571V16.135C8.62776 16.4245 8.39312 16.6591 8.10369 16.6591Z" stroke="black" stroke-width="1.57222" stroke-linecap="round"/>
<path d="M5.39642 19.6982H6.47353M17.2446 19.6982H16.7061M14.0133 19.6982H12.9362M10.2434 19.6982L9.16631 19.6982M12.3976 15.1395H16.7061" stroke="black" stroke-width="1.57222" stroke-linecap="round"/>
</svg>
