<svg width="17" height="17" viewBox="0 0 17 17" fill="none" xmlns="http://www.w3.org/2000/svg">
<g clip-path="url(#clip0_46_97)">
<path d="M8.07248 9.17763V5.42714C8.07248 4.79857 8.58293 4.28872 9.21226 4.28872C9.84158 4.28872 10.352 4.79857 10.352 5.42714V9.17763V6.82397C10.352 6.1954 10.8625 5.68555 11.4918 5.68555C12.1211 5.68555 12.6316 6.1954 12.6316 6.82397V9.17763H12.6386V8.15096C12.6386 7.56429 13.149 7.08239 13.7784 7.08239C14.4007 7.08239 14.9112 7.56429 14.9112 8.15096V11.6291C14.9112 13.7592 13.0861 15.4704 10.8135 15.4704H9.84858C8.88361 15.4704 8.02353 15.1491 7.34526 14.6672L2.67426 10.351C2.21975 9.92494 2.21975 9.1916 2.67426 8.76557C3.12877 8.33954 3.81404 8.43033 4.26855 8.85636L5.79292 10.2392V2.56363C5.78593 1.97696 6.29638 1.49506 6.92571 1.49506C7.55503 1.49506 8.06548 1.97696 8.06548 2.56363V9.17763" stroke="black" stroke-width="1.57222" stroke-linecap="round" stroke-linejoin="round"/>
</g>
<defs>
<clipPath id="clip0_46_97">
<rect width="16.7704" height="16.7704" fill="white" transform="translate(0.237061 0.0975037)"/>
</clipPath>
</defs>
</svg>
