<svg width="17" height="18" viewBox="0 0 17 18" fill="none" xmlns="http://www.w3.org/2000/svg">
<g clip-path="url(#clip0_46_183)">
<path d="M8.6223 16.2951C12.4815 16.2951 15.61 13.1666 15.61 9.30742C15.61 5.44824 12.4815 2.31976 8.6223 2.31976C4.76312 2.31976 1.63464 5.44824 1.63464 9.30742C1.63464 13.1666 4.76312 16.2951 8.6223 16.2951Z" stroke="black" stroke-width="1.57222" stroke-miterlimit="10" stroke-linecap="round" stroke-linejoin="round"/>
<path d="M8.62928 10.7049C8.62928 10.3556 8.62928 10.3556 8.62928 10.3556C8.65025 9.83149 9.32106 9.62885 10.0478 8.7484C10.3063 8.42697 10.502 8.19638 10.6208 7.80507C10.8234 7.17618 10.6627 6.63813 10.6208 6.52633C10.5788 6.36561 10.3832 5.81359 9.82417 5.43625C9.36299 5.1288 8.91578 5.11482 8.72012 5.11482C8.55242 5.11482 8.17509 5.11482 7.7698 5.32445C7.42042 5.50613 7.21079 5.74371 7.10598 5.88346C6.6937 6.38658 6.56793 6.95258 6.526 7.25304" stroke="black" stroke-width="1.57222" stroke-miterlimit="10" stroke-linecap="round" stroke-linejoin="round"/>
<path d="M8.61523 13.5H8.62857" stroke="black" stroke-width="1.57222" stroke-miterlimit="10" stroke-linecap="round"/>
</g>
<defs>
<clipPath id="clip0_46_183">
<rect width="16.7704" height="16.7704" fill="white" transform="translate(0.237061 0.922241)"/>
</clipPath>
</defs>
</svg>
