<svg width="47" height="47" viewBox="0 0 47 47" fill="none" xmlns="http://www.w3.org/2000/svg">
<rect width="46.1185" height="46.1185" rx="23.0593" fill="white" fill-opacity="0.1"/>
<path d="M26.8186 22.4409L23.675 19.2965C22.8577 18.4789 22.8577 17.1478 23.675 16.3302L26.8186 13.1858C27.636 12.3682 28.9668 12.3682 29.7841 13.1858L32.9277 16.3302C33.7451 17.1478 33.7451 18.4789 32.9277 19.2965L29.7841 22.4409C28.9563 23.2585 27.6255 23.2585 26.8186 22.4409Z" stroke="black" stroke-width="1.57222" stroke-miterlimit="10" stroke-linecap="round" stroke-linejoin="round"/>
<path d="M23.0568 32.4926H15.7217C14.5691 32.4926 13.626 31.5493 13.626 30.3963V23.0593H23.0568V32.4926Z" stroke="black" stroke-width="1.57222" stroke-miterlimit="10" stroke-linecap="round" stroke-linejoin="round"/>
<path d="M23.0568 23.0592H13.626V15.7222C13.626 14.5692 14.5691 13.6259 15.7217 13.6259H23.0568V23.0592Z" stroke="black" stroke-width="1.57222" stroke-miterlimit="10" stroke-linecap="round" stroke-linejoin="round"/>
<path d="M30.3918 32.4926H23.0567V23.0593H32.4876V30.3963C32.4876 31.5493 31.5445 32.4926 30.3918 32.4926Z" stroke="black" stroke-width="1.57222" stroke-miterlimit="10" stroke-linecap="round" stroke-linejoin="round"/>
</svg>
