<svg width="17" height="17" viewBox="0 0 17 17" fill="none" xmlns="http://www.w3.org/2000/svg">
<g clip-path="url(#clip0_46_217)">
<path d="M8.6223 15.4531C12.4815 15.4531 15.61 12.3246 15.61 8.46541C15.61 4.60623 12.4815 1.47775 8.6223 1.47775C4.76312 1.47775 1.63464 4.60623 1.63464 8.46541C1.63464 12.3246 4.76312 15.4531 8.6223 15.4531Z" stroke="black" stroke-width="1.57222" stroke-miterlimit="10" stroke-linecap="round" stroke-linejoin="round"/>
<path d="M8.53489 8.46542V8.4225L8.5816 8.44919L8.61 8.46542L8.5816 8.48165L8.53489 8.50834V8.46542Z" stroke="black" stroke-width="1.57222"/>
<path d="M8.62228 12.658C10.9378 12.658 12.8149 10.7809 12.8149 8.4654C12.8149 6.1499 10.9378 4.27281 8.62228 4.27281C6.30678 4.27281 4.42969 6.1499 4.42969 8.4654C4.42969 10.7809 6.30678 12.658 8.62228 12.658Z" stroke="black" stroke-width="1.57222" stroke-miterlimit="10" stroke-linecap="round" stroke-linejoin="round"/>
</g>
<defs>
<clipPath id="clip0_46_217">
<rect width="16.7704" height="16.7704" fill="white" transform="translate(0.237061 0.0802307)"/>
</clipPath>
</defs>
</svg>
