<svg width="26" height="26" viewBox="0 0 26 26" fill="none" xmlns="http://www.w3.org/2000/svg">
<path d="M5.84807 13.863C6.42456 13.863 6.89622 13.3913 6.89622 12.8148C6.89622 12.2383 6.42456 11.7667 5.84807 11.7667C5.27159 11.7667 4.79993 12.2383 4.79993 12.8148C4.79993 13.3913 5.27159 13.863 5.84807 13.863Z" stroke="black" stroke-width="1.57222" stroke-miterlimit="10" stroke-linecap="round" stroke-linejoin="round"/>
<path d="M20.5221 13.863C21.0986 13.863 21.5703 13.3913 21.5703 12.8148C21.5703 12.2383 21.0986 11.7667 20.5221 11.7667C19.9457 11.7667 19.474 12.2383 19.474 12.8148C19.474 13.3913 19.9457 13.863 20.5221 13.863Z" stroke="black" stroke-width="1.57222" stroke-miterlimit="10" stroke-linecap="round" stroke-linejoin="round"/>
<path d="M13.1851 21.2C13.7616 21.2 14.2333 20.7283 14.2333 20.1518C14.2333 19.5754 13.7616 19.1037 13.1851 19.1037C12.6086 19.1037 12.137 19.5754 12.137 20.1518C12.137 20.7283 12.6086 21.2 13.1851 21.2Z" stroke="black" stroke-width="1.57222" stroke-miterlimit="10" stroke-linecap="round" stroke-linejoin="round"/>
<path d="M13.1851 6.52592C13.7616 6.52592 14.2333 6.05426 14.2333 5.47777C14.2333 4.90129 13.7616 4.42963 13.1851 4.42963C12.6086 4.42963 12.137 4.90129 12.137 5.47777C12.137 6.05426 12.6086 6.52592 13.1851 6.52592Z" stroke="black" stroke-width="1.57222" stroke-miterlimit="10" stroke-linecap="round" stroke-linejoin="round"/>
<path d="M13.1851 13.863C13.7616 13.863 14.2333 13.3913 14.2333 12.8148C14.2333 12.2383 13.7616 11.7667 13.1851 11.7667C12.6086 11.7667 12.137 12.2383 12.137 12.8148C12.137 13.3913 12.6086 13.863 13.1851 13.863Z" stroke="black" stroke-width="1.57222" stroke-miterlimit="10" stroke-linecap="round" stroke-linejoin="round"/>
<path d="M5.84807 21.2C6.42456 21.2 6.89622 20.7283 6.89622 20.1518C6.89622 19.5754 6.42456 19.1037 5.84807 19.1037C5.27159 19.1037 4.79993 19.5754 4.79993 20.1518C4.79993 20.7283 5.27159 21.2 5.84807 21.2Z" stroke="black" stroke-width="1.57222" stroke-miterlimit="10" stroke-linecap="round" stroke-linejoin="round"/>
<path d="M20.5221 21.2C21.0986 21.2 21.5703 20.7283 21.5703 20.1518C21.5703 19.5754 21.0986 19.1037 20.5221 19.1037C19.9457 19.1037 19.474 19.5754 19.474 20.1518C19.474 20.7283 19.9457 21.2 20.5221 21.2Z" stroke="black" stroke-width="1.57222" stroke-miterlimit="10" stroke-linecap="round" stroke-linejoin="round"/>
<path d="M5.84807 6.52592C6.42456 6.52592 6.89622 6.05426 6.89622 5.47777C6.89622 4.90129 6.42456 4.42963 5.84807 4.42963C5.27159 4.42963 4.79993 4.90129 4.79993 5.47777C4.79993 6.05426 5.27159 6.52592 5.84807 6.52592Z" stroke="black" stroke-width="1.57222" stroke-miterlimit="10" stroke-linecap="round" stroke-linejoin="round"/>
<path d="M20.5221 6.52592C21.0986 6.52592 21.5703 6.05426 21.5703 5.47777C21.5703 4.90129 21.0986 4.42963 20.5221 4.42963C19.9457 4.42963 19.474 4.90129 19.474 5.47777C19.474 6.05426 19.9457 6.52592 20.5221 6.52592Z" stroke="black" stroke-width="1.57222" stroke-miterlimit="10" stroke-linecap="round" stroke-linejoin="round"/>
</svg>
