<svg width="26" height="26" viewBox="0 0 26 26" fill="none" xmlns="http://www.w3.org/2000/svg">
<path d="M21.5703 10.9555V6.76294" stroke="black" stroke-width="1.57222" stroke-miterlimit="10" stroke-linecap="round" stroke-linejoin="round"/>
<path d="M21.5703 19.3407V15.1481" stroke="black" stroke-width="1.57222" stroke-miterlimit="10" stroke-linecap="round" stroke-linejoin="round"/>
<path d="M4.79993 10.9555V6.76294" stroke="black" stroke-width="1.57222" stroke-miterlimit="10" stroke-linecap="round" stroke-linejoin="round"/>
<path d="M4.79993 19.3407V15.1481" stroke="black" stroke-width="1.57222" stroke-miterlimit="10" stroke-linecap="round" stroke-linejoin="round"/>
<path d="M11.7072 11.5739L6.27783 6.14453" stroke="black" stroke-width="1.57222" stroke-miterlimit="10" stroke-linecap="round" stroke-linejoin="round"/>
<path d="M20.0924 19.9591L14.663 14.5297" stroke="black" stroke-width="1.57222" stroke-miterlimit="10" stroke-linecap="round" stroke-linejoin="round"/>
<path d="M4.79991 6.76297C5.95766 6.76297 6.89621 5.82442 6.89621 4.66667C6.89621 3.50892 5.95766 2.57037 4.79991 2.57037C3.64216 2.57037 2.70361 3.50892 2.70361 4.66667C2.70361 5.82442 3.64216 6.76297 4.79991 6.76297Z" stroke="black" stroke-width="1.57222" stroke-miterlimit="10" stroke-linecap="round" stroke-linejoin="round"/>
<path d="M21.5703 6.76297C22.728 6.76297 23.6666 5.82442 23.6666 4.66667C23.6666 3.50892 22.728 2.57037 21.5703 2.57037C20.4125 2.57037 19.474 3.50892 19.474 4.66667C19.474 5.82442 20.4125 6.76297 21.5703 6.76297Z" stroke="black" stroke-width="1.57222" stroke-miterlimit="10" stroke-linecap="round" stroke-linejoin="round"/>
<path d="M4.79991 15.1481C5.95766 15.1481 6.89621 14.2096 6.89621 13.0518C6.89621 11.8941 5.95766 10.9555 4.79991 10.9555C3.64216 10.9555 2.70361 11.8941 2.70361 13.0518C2.70361 14.2096 3.64216 15.1481 4.79991 15.1481Z" stroke="black" stroke-width="1.57222" stroke-miterlimit="10" stroke-linecap="round" stroke-linejoin="round"/>
<path d="M13.1851 15.1481C14.3429 15.1481 15.2814 14.2096 15.2814 13.0518C15.2814 11.8941 14.3429 10.9555 13.1851 10.9555C12.0273 10.9555 11.0888 11.8941 11.0888 13.0518C11.0888 14.2096 12.0273 15.1481 13.1851 15.1481Z" stroke="black" stroke-width="1.57222" stroke-miterlimit="10" stroke-linecap="round" stroke-linejoin="round"/>
<path d="M21.5703 15.1481C22.728 15.1481 23.6666 14.2096 23.6666 13.0518C23.6666 11.8941 22.728 10.9555 21.5703 10.9555C20.4125 10.9555 19.474 11.8941 19.474 13.0518C19.474 14.2096 20.4125 15.1481 21.5703 15.1481Z" stroke="black" stroke-width="1.57222" stroke-miterlimit="10" stroke-linecap="round" stroke-linejoin="round"/>
<path d="M4.79991 23.5333C5.95766 23.5333 6.89621 22.5948 6.89621 21.437C6.89621 20.2793 5.95766 19.3407 4.79991 19.3407C3.64216 19.3407 2.70361 20.2793 2.70361 21.437C2.70361 22.5948 3.64216 23.5333 4.79991 23.5333Z" stroke="black" stroke-width="1.57222" stroke-miterlimit="10" stroke-linecap="round" stroke-linejoin="round"/>
<path d="M21.5703 23.5333C22.728 23.5333 23.6666 22.5948 23.6666 21.437C23.6666 20.2793 22.728 19.3407 21.5703 19.3407C20.4125 19.3407 19.474 20.2793 19.474 21.437C19.474 22.5948 20.4125 23.5333 21.5703 23.5333Z" stroke="black" stroke-width="1.57222" stroke-miterlimit="10" stroke-linecap="round" stroke-linejoin="round"/>
<path d="M13.1851 6.76297C14.3429 6.76297 15.2814 5.82442 15.2814 4.66667C15.2814 3.50892 14.3429 2.57037 13.1851 2.57037C12.0273 2.57037 11.0888 3.50892 11.0888 4.66667C11.0888 5.82442 12.0273 6.76297 13.1851 6.76297Z" stroke="black" stroke-width="1.57222" stroke-miterlimit="10" stroke-linecap="round" stroke-linejoin="round"/>
<path d="M13.1851 23.5333C14.3429 23.5333 15.2814 22.5948 15.2814 21.437C15.2814 20.2793 14.3429 19.3407 13.1851 19.3407C12.0273 19.3407 11.0888 20.2793 11.0888 21.437C11.0888 22.5948 12.0273 23.5333 13.1851 23.5333Z" stroke="black" stroke-width="1.57222" stroke-miterlimit="10" stroke-linecap="round" stroke-linejoin="round"/>
</svg>
