<svg width="17" height="17" viewBox="0 0 17 17" fill="none" xmlns="http://www.w3.org/2000/svg">
<g clip-path="url(#clip0_46_227)">
<path d="M9.92899 3.59351L9.71237 1.88154C9.69141 1.70685 9.54467 1.57408 9.36299 1.57408H7.18983C7.01514 1.57408 6.86141 1.70685 6.84044 1.88154L6.65178 3.38388C6.6378 3.50966 6.54696 3.62146 6.42817 3.66339C5.84121 3.88001 5.2822 4.21541 4.80005 4.64865L3.20686 3.97783C3.04615 3.90796 2.85748 3.97085 2.76664 4.12458L1.67657 6.01124C1.59272 6.16497 1.63464 6.36062 1.7744 6.46544L3.15096 7.5066C3.00422 8.21235 3.00422 8.93208 3.14398 9.61687H3.15096L1.7744 10.658C1.63464 10.7628 1.59272 10.9585 1.68356 11.1122L2.77363 12.9989C2.86447 13.1526 3.05314 13.2155 3.21385 13.1456L4.80704 12.4748L4.80005 12.4818C5.05859 12.7124 5.35207 12.922 5.66652 13.1037C5.98096 13.2854 6.3024 13.4321 6.6378 13.5439V13.53L6.85442 15.2419C6.86141 15.4166 7.01514 15.5494 7.18983 15.5494H9.36998C9.54467 15.5494 9.69141 15.4166 9.71936 15.2419L9.90802 13.7396C9.922 13.6138 10.0128 13.502 10.1316 13.4601C10.7186 13.2435 11.2776 12.9081 11.7598 12.4748L13.3529 13.1456C13.5137 13.2155 13.7023 13.1526 13.7932 12.9989L14.8832 11.1122C14.9741 10.9585 14.9321 10.7628 14.7924 10.658L13.4158 9.61687C13.5626 8.91112 13.5626 8.19139 13.4228 7.5066H13.4158L14.7784 6.46544C14.9182 6.36062 14.9601 6.16497 14.8693 6.01124L13.7792 4.12458C13.6883 3.97085 13.4997 3.90796 13.339 3.97783L11.7528 4.64865L11.7598 4.64166C11.5012 4.41107 11.2077 4.20144 10.8933 4.01976C10.5788 3.83808 10.2574 3.69134 9.922 3.57954" stroke="black" stroke-width="1.57222" stroke-miterlimit="10" stroke-linecap="round" stroke-linejoin="round"/>
<path d="M8.27993 11.3568C9.8236 11.3568 11.075 10.1054 11.075 8.56174C11.075 7.01807 9.8236 5.76668 8.27993 5.76668C6.73626 5.76668 5.48486 7.01807 5.48486 8.56174C5.48486 10.1054 6.73626 11.3568 8.27993 11.3568Z" stroke="black" stroke-width="1.57222" stroke-miterlimit="10" stroke-linecap="round" stroke-linejoin="round"/>
</g>
<defs>
<clipPath id="clip0_46_227">
<rect width="16.7704" height="16.7704" fill="white" transform="translate(0.237061 0.176559)"/>
</clipPath>
</defs>
</svg>
