<svg width="26" height="26" viewBox="0 0 26 26" fill="none" xmlns="http://www.w3.org/2000/svg">
<path d="M16.8184 12.441L13.6748 9.29656C12.8574 8.47901 12.8574 7.14786 13.6748 6.3303L16.8184 3.18586C17.6357 2.3683 18.9665 2.3683 19.7839 3.18586L22.9275 6.3303C23.7448 7.14786 23.7448 8.47901 22.9275 9.29656L19.7839 12.441C18.956 13.2586 17.6253 13.2586 16.8184 12.441Z" stroke="black" stroke-width="1.57222" stroke-miterlimit="10" stroke-linecap="round" stroke-linejoin="round"/>
<path d="M13.0568 22.4926H5.72172C4.56906 22.4926 3.62598 21.5493 3.62598 20.3963V13.0593H13.0568V22.4926Z" stroke="black" stroke-width="1.57222" stroke-miterlimit="10" stroke-linecap="round" stroke-linejoin="round"/>
<path d="M13.0568 13.0593H3.62598V5.72224C3.62598 4.56928 4.56906 3.62595 5.72172 3.62595H13.0568V13.0593Z" stroke="black" stroke-width="1.57222" stroke-miterlimit="10" stroke-linecap="round" stroke-linejoin="round"/>
<path d="M20.3917 22.4926H13.0566V13.0593H22.4875V20.3963C22.4875 21.5493 21.5444 22.4926 20.3917 22.4926Z" stroke="black" stroke-width="1.57222" stroke-miterlimit="10" stroke-linecap="round" stroke-linejoin="round"/>
</svg>
