<svg width="26" height="26" viewBox="0 0 26 26" fill="none" xmlns="http://www.w3.org/2000/svg">
<path d="M3.99615 12.592C3.28094 12.592 2.70361 13.0769 2.70361 13.6774L2.70361 21.6371C2.70361 22.2377 3.28094 22.7225 3.99615 22.7225L18.6448 22.7225C19.3601 22.7225 19.9374 22.2377 19.9374 21.6371L19.9374 17.0177L19.9374 13.6774C19.9374 13.0769 19.3601 12.592 18.6448 12.592L3.99615 12.592Z" stroke="black" stroke-width="1.57222" stroke-miterlimit="10" stroke-linecap="round" stroke-linejoin="round"/>
<path d="M18.6446 12.592L18.6446 13.3781L18.6446 12.592ZM19.9371 13.6774L20.7232 13.6774L19.9371 13.6774ZM22.56 13.5277L23.2516 13.9014L23.2516 13.9014L22.56 13.5277ZM8.22144 4.28733L7.52985 3.91361L7.52985 3.91361L8.22144 4.28733ZM9.81291 4.02533L9.47388 4.73458L9.47388 4.73458L9.81291 4.02533ZM22.8718 10.2676L23.2108 9.55839L23.2108 9.55839L22.8718 10.2676ZM23.5848 11.6312L22.8932 11.2575L22.8932 11.2575L23.5848 11.6312ZM4.34982 11.4519L5.04141 11.8256L5.04141 11.8256L4.34982 11.4519ZM22.0719 14.4308L21.7329 15.1401L22.4079 15.4627L22.7635 14.8045L22.0719 14.4308ZM6.70858 7.08694L6.01699 6.71321L5.62428 7.43993L6.36955 7.79618L6.70858 7.08694ZM4.39972 12.592L3.73779 13.016L3.96973 13.3781H4.39972V12.592ZM19.9371 18.3815H19.151V21.4897L20.6287 18.7552L19.9371 18.3815ZM19.891 13.3883L19.1438 13.6325L19.891 13.3883ZM22.899 12.8185L7.53563 5.47459L6.85757 6.89308L22.2209 14.237L22.899 12.8185ZM7.88819 6.55756L8.91303 4.66106L7.52985 3.91361L6.50501 5.81011L7.88819 6.55756ZM8.91303 4.66106C8.88801 4.70736 8.8768 4.66883 8.99691 4.64906C9.11253 4.63003 9.28739 4.64543 9.47388 4.73458L10.1519 3.31609C9.70085 3.10046 9.20149 3.022 8.74152 3.09772C8.28606 3.1727 7.7979 3.41756 7.52985 3.91361L8.91303 4.66106ZM9.47388 4.73458L22.5327 10.9769L23.2108 9.55839L10.1519 3.31609L9.47388 4.73458ZM22.5327 10.9769C22.72 11.0664 22.8223 11.1835 22.8619 11.2593C22.8997 11.3316 22.8627 11.314 22.8932 11.2575L24.2764 12.0049C24.55 11.4987 24.4752 10.9517 24.2551 10.5308C24.0369 10.1134 23.6611 9.77363 23.2108 9.55839L22.5327 10.9769ZM22.8932 11.2575L21.8684 13.154L23.2516 13.9014L24.2764 12.0049L22.8932 11.2575ZM5.04141 11.8256L7.88819 6.55756L6.50501 5.81011L3.65822 11.0782L5.04141 11.8256ZM21.8684 13.154L21.3804 14.0571L22.7635 14.8045L23.2516 13.9014L21.8684 13.154ZM7.40017 7.46066L7.88819 6.55756L6.50501 5.81011L6.01699 6.71321L7.40017 7.46066ZM5.06165 12.1679C4.98756 12.0523 4.98508 11.9299 5.04141 11.8256L3.65822 11.0782C3.3115 11.7198 3.37687 12.4527 3.73779 13.016L5.06165 12.1679ZM19.151 13.6774V18.3815H20.7232V13.6774H19.151ZM21.8684 13.154L19.2455 18.0077L20.6287 18.7552L23.2516 13.9014L21.8684 13.154ZM4.39972 13.3781H18.2251V11.8059H4.39972V13.3781ZM18.2251 13.3781H18.6446V11.8059H18.2251V13.3781ZM18.5641 11.8827L7.04761 6.37769L6.36955 7.79618L17.8861 13.3012L18.5641 11.8827ZM22.411 13.7216L20.23 12.679L19.5519 14.0975L21.7329 15.1401L22.411 13.7216ZM18.6446 13.3781C18.9702 13.3781 19.1193 13.5577 19.1438 13.6325L20.6382 13.144C20.3621 12.2994 19.5108 11.8059 18.6446 11.8059L18.6446 13.3781ZM19.1438 13.6325C19.1486 13.6475 19.151 13.662 19.151 13.6774L20.7232 13.6774C20.7232 13.4924 20.6934 13.3131 20.6382 13.144L19.1438 13.6325Z" fill="black"/>
<path d="M18.6447 12.592L18.6447 13.3781L18.6447 12.592ZM22.5601 13.5277L23.2517 13.9014C23.3541 13.7121 23.3743 13.489 23.3076 13.2844C23.241 13.0797 23.0934 12.9113 22.8992 12.8185L22.5601 13.5277ZM7.19676 6.18384L7.53579 5.47459C7.15773 5.29388 6.70438 5.44147 6.50517 5.81011L7.19676 6.18384ZM22.0721 14.4308L21.7331 15.1401L22.408 15.4627L22.7637 14.8045L22.0721 14.4308ZM6.70874 7.08694L6.01715 6.71321L5.62444 7.43993L6.36971 7.79618L6.70874 7.08694ZM18.2253 12.592L17.8862 13.3012L18.047 13.3781H18.2253V12.592ZM19.8911 13.3883L19.1439 13.6325L19.2485 13.9524L19.5521 14.0975L19.8911 13.3883ZM22.8992 12.8185L7.53579 5.47459L6.85773 6.89308L22.2211 14.237L22.8992 12.8185ZM21.8685 13.154L21.3805 14.0571L22.7637 14.8045L23.2517 13.9014L21.8685 13.154ZM7.40033 7.46066L7.88835 6.55756L6.50517 5.81011L6.01715 6.71321L7.40033 7.46066ZM18.2253 13.3781H18.6447V11.8059H18.2253V13.3781ZM18.5643 11.8827L7.04777 6.37769L6.36971 7.79618L17.8862 13.3012L18.5643 11.8827ZM22.4111 13.7216L20.2301 12.679L19.5521 14.0975L21.7331 15.1401L22.4111 13.7216ZM18.6447 13.3781C18.9703 13.3781 19.1195 13.5577 19.1439 13.6325L20.6383 13.144C20.3622 12.2994 19.5109 11.8059 18.6447 11.8059L18.6447 13.3781Z" fill="black"/>
<path d="M18.6446 12.592L18.6446 13.3781L18.6446 12.592ZM19.9371 13.6774L20.7232 13.6774L19.9371 13.6774ZM4.34982 11.4519L5.04141 11.8256L5.04141 11.8256L4.34982 11.4519ZM22.0719 14.4308L22.7635 14.8045L23.1562 14.0778L22.411 13.7215L22.0719 14.4308ZM6.70858 7.08691L7.04761 6.37767L6.37265 6.05503L6.01699 6.71319L6.70858 7.08691ZM4.39972 12.592L3.73779 13.016L3.96973 13.3781H4.39972V12.592ZM19.9371 18.3814H19.151V21.4897L20.6287 18.7552L19.9371 18.3814ZM19.891 13.3883L19.1438 13.6325L19.891 13.3883ZM5.06165 12.1679C4.98756 12.0523 4.98508 11.9299 5.04141 11.8256L3.65822 11.0782C3.3115 11.7198 3.37687 12.4526 3.73779 13.016L5.06165 12.1679ZM19.151 13.6774V18.3814H20.7232V13.6774H19.151ZM4.39972 13.3781H18.2251V11.8058H4.39972V13.3781ZM18.2251 13.3781H18.6446V11.8058H18.2251V13.3781ZM18.5641 11.8827L7.04761 6.37767L6.36955 7.79616L17.8861 13.3012L18.5641 11.8827ZM22.411 13.7215L20.23 12.679L19.5519 14.0975L21.7329 15.14L22.411 13.7215ZM18.6446 13.3781C18.9702 13.3781 19.1193 13.5577 19.1438 13.6325L20.6382 13.144C20.3621 12.2994 19.5108 11.8058 18.6446 11.8058L18.6446 13.3781ZM19.1438 13.6325C19.1486 13.6474 19.151 13.662 19.151 13.6774L20.7232 13.6774C20.7232 13.4924 20.6934 13.3131 20.6382 13.144L19.1438 13.6325ZM6.01699 6.71319L3.65822 11.0782L5.04141 11.8256L7.40017 7.46064L6.01699 6.71319ZM21.3804 14.0571L19.2455 18.0077L20.6287 18.7552L22.7635 14.8045L21.3804 14.0571Z" fill="black"/>
<path fill-rule="evenodd" clip-rule="evenodd" d="M22.5601 13.5277L7.19678 6.18384L8.22162 4.28733C8.46465 3.83759 9.17551 3.72056 9.81309 4.02533L22.872 10.2676C23.5095 10.5724 23.828 11.1815 23.585 11.6312L22.5601 13.5277Z" stroke="black" stroke-width="1.57222" stroke-miterlimit="10" stroke-linecap="round" stroke-linejoin="round"/>
<path d="M8.1035 17.1506L5.92032 17.1506C5.63088 17.1506 5.39624 16.916 5.39624 16.6266V15.6486C5.39624 15.3592 5.63087 15.1245 5.92031 15.1245L8.10349 15.1245C8.39293 15.1245 8.62757 15.3592 8.62757 15.6486V16.6265C8.62757 16.916 8.39294 17.1506 8.1035 17.1506Z" stroke="black" stroke-width="1.57222" stroke-linecap="round"/>
<path d="M5.39624 20.1896H6.47335M17.2445 20.1896H16.7059M14.0131 20.1896H12.936M10.2432 20.1896L9.16613 20.1895M12.3975 15.6309H16.7059" stroke="black" stroke-width="1.57222" stroke-linecap="round"/>
</svg>
