<svg width="109" height="132" viewBox="0 0 109 132" fill="none" xmlns="http://www.w3.org/2000/svg">
<path d="M59.3454 77.1938C59.3454 77.1938 59.0303 71.7305 58.5194 70.2389C57.1994 66.4233 57.3101 59.8413 62.7942 60.2316C68.2868 60.6218 67.0094 66.9263 65.9194 70.3083C64.838 73.6903 65.3489 77.3238 65.3489 77.3238L59.3454 77.1938Z" fill="#FF9003"/>
<path d="M49.9016 77.5753C49.9612 77.3151 49.5865 73.2827 49.9612 69.9094C50.3359 66.536 52.1327 61.2635 47.0233 60.353C41.9139 59.4424 39.768 66.4406 41.8714 71.3142C43.9747 76.1878 44.0854 78.5466 44.0854 78.5466L49.9016 77.5753Z" fill="#FF9003"/>
<path d="M36.2425 44.1712C40.33 41.2228 49.0926 38.0229 49.9442 39.6619C50.7957 41.3095 42.6292 47.1977 42.6292 47.1977C42.6292 47.1977 44.9285 51.6204 44.9285 52.8344C44.9285 54.0485 45.0136 57.0837 43.6511 58.1243C42.2886 59.1649 32.419 65.4867 32.419 65.4867C32.419 65.4867 32.3424 66.7528 31.9932 67.7414C31.312 69.6666 30.2901 70.2562 30.2901 70.2562L29.694 74.8523L33.0151 82.128L39.3933 107.259L35.6464 109.687C35.6464 109.687 29.6088 108.04 28.2463 107.953C26.8838 107.866 24.4143 107.606 23.8182 107.866C23.2221 108.126 23.0518 104.831 23.0518 104.831C23.0518 104.831 26.7987 101.883 26.7135 101.102C26.6284 100.322 24.244 100.261 22.9667 100.131C21.6893 100.001 18.4363 100.521 18.1127 100.001C17.7892 99.4805 17.8573 97.5293 19.1346 96.9483C20.412 96.3673 24.7549 94.5462 24.8145 94.0258C24.8742 93.5055 20.4545 92.5776 17.6018 91.6671C14.8427 90.7826 13.344 90.2796 11.2832 89.7419C9.8015 89.3517 7.77478 89.4211 7.77478 89.4211L10.8404 85.328L25.2659 87.019C25.2659 87.019 18.5045 81.6858 17.4826 80.7145C16.4607 79.7433 15.507 78.7026 15.507 78.7026C15.507 78.7026 16.7162 77.8615 17.8062 78.1216C18.8962 78.3818 25.334 83.8451 25.334 83.8451C25.334 83.8451 25.2063 81.7638 25.7172 80.8533C26.2281 79.9427 26.7987 79.7519 26.7987 79.7519C26.7987 79.7519 27.7524 80.5324 28.076 80.0728C28.3911 79.6219 26.671 77.7314 26.0323 76.0404C25.3936 74.3494 25.3936 73.248 25.3936 73.248C25.3936 73.248 22.2002 72.4676 21.6893 68.175C21.1784 63.8824 25.9642 61.0294 25.9642 61.0294L36.2425 44.1712Z" fill="#FA1C1F"/>
<path d="M59.4731 39.8613C58.8344 42.4195 64.4547 47.9435 64.4547 47.9435L64.327 50.0248C64.327 50.0248 62.411 55.0978 63.816 56.9102C65.2211 58.7313 70.901 60.2923 70.901 60.2923L77.6028 67.1777C77.6028 67.1777 79.6466 69.84 80.4726 70.6899C81.2986 71.531 76.581 77.5753 76.581 77.5753L74.154 97.0697L76.1978 107.667L86.2377 106.695C86.2377 106.695 85.5139 104.684 85.1988 103.704C84.8837 102.732 81.5626 99.7406 81.5626 99.7406C81.5626 99.7406 83.0273 98.119 85.582 97.9889C88.1367 97.8588 90.6914 98.9602 90.3678 97.9889C90.0527 97.0177 88.7753 94.9971 88.7753 94.9971L83.155 92.7251C83.155 92.7251 86.1525 90.8433 88.1963 90.0628C90.24 89.2823 96.8737 87.5913 97.7678 87.2705C98.662 86.9496 101.6 87.7214 100.638 86.0391C99.6839 84.3481 94.5745 84.3481 94.5745 84.3481L83.5978 85.3887C83.5978 85.3887 85.8289 82.9866 88.2559 81.2262C90.6828 79.4745 94.6341 76.6127 94.6341 76.6127L91.3896 75.6328L82.5845 78.8154C82.5845 78.8154 80.6089 80.1769 80.6089 79.2663C80.6089 78.3558 84.3557 76.8209 85.6331 73.9591C86.5442 71.9126 85.7778 71.0107 85.7778 71.0107C85.7778 71.0107 87.6939 70.0395 87.8216 66.9783C87.9493 63.9258 85.5905 60.6738 85.5905 60.6738L66.7539 41.0581C66.7539 41.0581 59.9499 37.9795 59.4731 39.8613Z" fill="#FA1C1F"/>
<path d="M29.0979 70.976C26.8923 71.982 27.6332 74.7916 28.076 76.0231C28.5188 77.2545 29.8643 79.7953 29.8643 79.7953C29.8643 79.7953 28.5869 82.3275 28.2719 83.4375C27.9568 84.5388 27.25 89.0916 28.5869 93.5142C29.9239 97.9369 32.9299 104.632 33.6963 105.863C34.4627 107.094 37.0174 111.777 42.5015 114.439C47.9855 117.102 54.6873 117.006 59.669 116.651C66.0472 116.2 72.0507 112.228 73.1322 110.606C74.2137 108.985 76.581 107.745 77.918 102.871C79.2549 97.9976 80.6004 90.6525 80.2172 85.5188C79.834 80.385 78.0457 78.1737 78.0457 78.1737C78.0457 78.1737 80.3449 77.0724 81.6819 75.2513C83.0188 73.4302 83.6405 71.3056 81.784 70.5945C79.9362 69.8834 77.0409 71.8692 76.317 72.8491C75.21 74.3407 74.5969 75.9016 74.5969 75.9016C74.5969 75.9016 60.6142 75.7716 54.1764 76.0924C43.898 76.6127 38.414 77.8442 38.414 77.8442L34.0114 78.0349C34.0114 78.0349 33.824 68.8254 29.0979 70.976Z" fill="#FF5F00"/>
<path d="M6.97419 82.605C5.77349 81.7031 7.65544 79.0495 10.934 76.7948C14.2125 74.5401 16.1711 73.803 17.6528 74.0632C19.143 74.3234 23.1879 76.9683 24.9677 78.1823C26.492 79.223 28.1185 80.0902 28.1611 80.3503C28.2036 80.6105 27.3691 80.4284 26.4579 81.9546C25.9726 82.7784 25.4361 84.4261 25.5638 84.3394C25.6915 84.2527 17.6102 79.2056 16.929 79.2056C16.2477 79.2056 12.6711 81.0874 11.479 81.521C10.2953 81.9546 7.95349 83.3421 6.97419 82.605Z" fill="#FF5F00"/>
<path d="M0.357611 95.448C0.67269 96.2112 2.10331 96.402 4.78574 94.5375C7.46816 92.6731 11.0362 88.7707 11.76 88.5626C12.4839 88.3545 17.9253 89.343 20.9058 89.7766C23.8863 90.2102 25.632 90.6438 25.632 90.6438L25.4191 87.0884C25.4191 87.0884 16.9971 84.6169 14.1444 84.27C11.2917 83.9231 10.9936 83.4028 9.41824 84.0966C7.84285 84.7903 4.26628 89.1696 3.2955 90.375C2.32472 91.5804 0.0169863 94.6329 0.357611 95.448Z" fill="#FF5F00"/>
<path d="M17.5932 93.9825C15.7197 94.3728 10.108 99.0556 9.08608 100.825C8.0642 102.602 5.67983 108.274 5.12631 110.398C4.5728 112.523 5.80756 112.566 7.08491 112.046C8.36225 111.526 11.5982 106.453 12.1943 105.594C12.7904 104.727 15.558 102.472 16.4095 101.692C17.2611 100.911 19.8158 98.6567 20.4119 98.5266C21.008 98.3965 27.2158 99.0902 27.5139 98.7434C27.8119 98.3965 27.3862 96.9223 26.9178 96.0985C26.4494 95.2746 24.8996 94.3467 24.8996 94.3467C24.8996 94.3467 19.0323 93.679 17.5932 93.9825Z" fill="#FF5F00"/>
<path d="M27.3777 101.995C25.3765 101.475 21.2976 102.863 20.1479 103.556C18.9983 104.25 17.7636 106.158 17.1249 108.976C16.4862 111.795 15.6772 116.512 16.3159 116.859C16.9546 117.206 19.4667 115.992 20.4886 113.564C21.5104 111.135 22.8304 108.664 23.8522 107.84C24.8741 107.016 26.5347 106.669 28.0249 106.669H31.346C31.346 106.669 29.9835 104.155 29.6854 103.461C29.3789 102.776 28.6295 102.325 27.3777 101.995Z" fill="#FF5F00"/>
<path d="M38.397 81.9373C36.9919 80.1595 34.5224 81.6771 32.947 83.8884C31.3716 86.0998 31.0736 87.1404 31.329 91.2075C31.5845 95.2833 35.2036 95.6735 35.2462 92.7684C35.2888 89.8634 34.7778 88.9962 35.7146 87.6087C36.6513 86.2212 39.8532 83.7757 38.397 81.9373Z" fill="#FF9003"/>
<path d="M33.5856 99.0469C34.5563 100.261 37.2899 99.8707 37.5028 97.8328C37.7156 95.7949 36.3957 95.2313 34.9906 95.2313C32.981 95.2399 32.4785 97.6594 33.5856 99.0469Z" fill="#FF9003"/>
<path d="M81.3668 79.4831C81.3668 79.4831 81.9203 79.9774 82.3461 80.888C82.823 81.9113 82.9167 82.4056 83.0699 82.6224C83.2573 82.8912 90.0868 77.1157 92.0454 76.7688C94.004 76.422 98.892 79.9774 100.936 80.3243C102.545 80.5931 103.788 80.2376 102.767 78.5466C101.745 76.8556 95.8349 71.8779 93.2802 72.0947C90.3167 72.3462 81.8352 79.1363 81.3668 79.4831Z" fill="#FF5F00"/>
<path d="M83.5978 85.38C83.5978 85.38 95.2217 80.8533 97.9126 81.417C101.021 82.0674 103.805 86.3773 104.844 87.4786C106.011 88.71 109.783 92.7685 107.697 93.5402C104.197 94.8497 97.8274 86.7415 96.763 86.2212C95.6985 85.7009 95.0599 86.0044 92.1646 86.4813C89.2692 86.9583 83.2828 88.7794 83.2828 88.7794C83.2657 88.7881 83.4445 87.4786 83.4701 86.941C83.4956 86.4206 83.5978 85.38 83.5978 85.38Z" fill="#FF5F00"/>
<path d="M83.0699 92.2915C82.7889 92.5776 82.5931 94.4248 82.5164 94.8497C82.3887 95.5434 82.2184 96.6708 82.2184 96.6708C82.2184 96.6708 88.3837 96.8008 88.9798 97.061C89.5759 97.3212 91.4919 99.333 93.0673 100.747C94.2765 101.822 97.8786 105.386 97.8786 105.386C97.8786 105.386 100.604 110.893 102.264 110.936C103.925 110.979 103.925 108.638 103.158 106.513C102.392 104.389 101.285 100.79 100.859 100.365C100.433 99.9314 98.9431 97.7634 97.1548 95.9423C96.2777 95.0491 93.0673 92.2134 92.2157 92.0834C91.3642 91.9446 83.666 91.6844 83.0699 92.2915Z" fill="#FF5F00"/>
<path d="M81.5371 99.5498C81.5371 99.5498 87.4469 100.478 89.6184 102.429C90.9383 103.617 92.4882 106.999 92.7692 109.791C92.8544 110.667 93.4079 115.983 91.9602 116.2C90.5126 116.417 88.5369 113.407 87.9834 111.847C87.4299 110.286 86.4336 107.537 86.4336 107.537C86.4336 107.537 83.683 105.863 83.5383 105.802C82.5164 105.395 79.3656 105.325 79.3656 105.325C79.3656 105.325 80.4215 103.383 80.7707 102.377C81.1965 101.154 81.5371 99.5498 81.5371 99.5498Z" fill="#FF5F00"/>
<path d="M29.6769 43.8938C23.1284 48.0996 19.4411 59.5812 25.7597 64.342C32.6489 69.5452 42.1438 62.0006 46.3079 56.2859C50.4721 50.5711 52.5158 47.6227 51.247 45.8449C49.9782 44.0672 43.8469 49.5738 43.8469 49.5738C43.8469 49.5738 44.4004 51.525 44.3153 53.7797C44.2301 56.0344 44.0598 58.159 43.0805 58.159C42.1012 58.159 42.1864 54.8203 41.2497 51.9673C40.3129 49.1142 39.3336 48.7587 39.3762 47.6313C39.4188 46.504 44.3579 43.677 45.6097 42.9312C48.3091 41.3095 50.5913 39.922 49.5013 39.2716C48.6072 38.7166 39.4273 37.6413 29.6769 43.8938Z" fill="#FF5F00"/>
<path d="M26.7391 59.6592C29.7026 59.3037 28.3315 56.2945 28.9958 53.8491C29.8047 50.8573 32.3594 49.2096 30.4434 47.5273C28.3401 45.6715 25.9727 49.2703 25.2063 53.164C24.7379 55.5488 24.5676 59.9194 26.7391 59.6592Z" fill="#FF9003"/>
<path d="M67.9632 49.3917C68.0057 50.2156 65.8768 50.996 65.2808 53.9011C64.6847 56.8062 64.6421 59.1909 69.496 62.9112C74.3499 66.6314 80.4726 69.9701 84.6027 65.1225C88.7328 60.2749 86.8168 50.5191 79.0675 44.2406C72.7745 39.1416 64.046 37.7107 60.3502 39.0375C58.1787 39.818 62.0533 42.116 64.31 44.3707C66.9583 47.0243 67.9206 48.5679 67.9632 49.3917Z" fill="#FF5F00"/>
<path d="M58.6471 46.3392C57.8892 47.1544 58.4086 50.1982 59.8392 52.1927C60.9888 53.797 63.6713 56.572 63.6713 56.572C63.6713 56.572 63.1603 52.9732 63.501 52.1927C63.8416 51.4123 63.6713 49.7646 63.6713 49.7646C63.6713 49.7646 62.3088 48.5072 61.5424 47.8568C60.776 47.2064 59.3709 45.5587 58.6471 46.3392Z" fill="#FF5F00"/>
<path d="M67.7928 52.687C66.26 52.9472 66.7539 55.4274 67.7928 57.63C68.8573 59.8847 70.603 60.882 71.6674 59.9714C72.7319 59.0609 71.5397 57.0663 70.901 55.8956C70.2624 54.7249 69.3256 52.4269 67.7928 52.687Z" fill="#FF9009"/>
<path d="M65.3516 67.2994C65.9311 65.3163 65.1766 63.3377 63.6664 62.8801C62.1563 62.4225 60.4624 63.6592 59.8829 65.6423C59.3035 67.6255 60.0579 69.6041 61.5681 70.0617C63.0782 70.5192 64.7722 69.2825 65.3516 67.2994Z" fill="#322D2E"/>
<path d="M46.1808 70.1746C47.8838 69.9971 49.0967 68.1847 48.8899 66.1265C48.6831 64.0682 47.1348 62.5436 45.4318 62.721C43.7288 62.8985 42.5159 64.7109 42.7228 66.7691C42.9296 68.8274 44.4778 70.352 46.1808 70.1746Z" fill="#322D2E"/>
<path d="M66.4133 47.1024C65.8172 46.1484 63.9353 47.7007 63.1348 49.6606C62.1981 51.9586 62.1981 55.1238 63.4329 56.4159C64.6676 57.7081 63.518 53.2941 64.6676 50.9527C65.6214 49.0102 67.0094 48.0476 66.4133 47.1024Z" fill="#A62616"/>
<path d="M40.8239 46.0183C40.1597 46.6948 41.122 47.0156 41.6755 48.4465C42.229 49.8773 42.6974 50.9613 42.9954 52.739C43.2254 54.1092 43.038 58.6966 43.9747 57.3525C44.9114 56.0083 45.0988 50.3543 43.847 48.1863C42.7315 46.2785 41.5818 45.2379 40.8239 46.0183Z" fill="#A62616"/>
<path d="M69.9644 76.1705C70.1943 77.1157 73.541 76.7341 75.7125 77.9482C77.884 79.1623 79.5445 82.1974 79.4168 88.4325C79.2805 94.6762 77.4922 101.596 77.1942 102.602C76.4704 105.074 73.8731 109.401 73.4047 110.008C72.9364 110.615 71.8549 111.977 73.8305 110.572C76.002 109.028 76.811 107.797 76.811 107.797C76.811 107.797 80.6856 107.927 80.8133 107.146C80.9411 106.366 77.6625 105.976 77.6625 105.976C77.6625 105.976 78.3438 104.632 78.8973 102.897C79.4508 101.163 79.8766 99.5585 79.8766 99.5585C79.8766 99.5585 80.8559 99.5759 83.0018 99.3417C85.3607 99.0816 88.7669 98.9948 89.1927 98.3011C89.7207 97.4426 85.6843 97.6073 83.615 97.8068C81.9289 97.9629 80.1661 97.8675 80.1661 97.8675C80.1661 97.8675 80.4642 96.1591 80.6345 95.0752C80.8048 93.9912 80.907 92.647 80.907 92.647C80.907 92.647 85.0967 91.6498 86.4166 91.2162C87.7365 90.7826 92.2072 89.3344 92.1647 88.684C92.1306 88.207 88.7158 88.8141 86.3144 89.4211C84.2536 89.9414 80.9325 90.6785 80.9325 90.6785C80.9325 90.6785 81.0603 88.7273 81.1454 87.7301C81.2306 86.7328 81.1454 85.6055 81.1454 85.6055C81.1454 85.6055 82.6782 85.7789 83.5894 85.3713C84.5006 84.9637 85.8886 83.4288 86.9701 82.6657C88.1623 81.8245 91.4579 79.4571 91.245 78.8934C91.0065 78.2604 86.9701 80.6712 85.7098 81.5557C84.739 82.2408 83.3084 83.4809 82.5846 83.6109C81.8607 83.741 81.0518 83.8277 81.0518 83.8277C81.0518 83.8277 80.4557 81.2695 80.1576 80.3156C79.8596 79.3617 78.8377 77.3672 77.1771 76.3266C75.5166 75.2859 69.4535 74.0459 69.9644 76.1705Z" fill="#A62616"/>
<path d="M31.329 78.3384C28.6892 79.249 27.0712 82.024 26.8583 83.8451C26.6454 85.6662 26.7732 86.3599 26.7732 86.3599C26.7732 86.3599 23.8778 84.2787 22.7708 83.3248C22.0044 82.6657 16.8354 78.3818 16.2393 79.3791C15.6432 80.3763 21.4083 84.7123 22.0044 85.3193C22.6005 85.9263 26.688 88.8314 26.688 88.8314L27.1989 91.6064C27.1989 91.6064 25.7768 92.04 24.3718 92.1701C22.9667 92.3002 17.2101 89.8981 17.0313 91.459C16.9887 91.8232 23.7586 93.8958 24.261 93.9912C25.3425 94.208 28.0079 93.8611 28.0079 93.8611C28.0079 93.8611 28.8595 96.6534 29.0298 97.1738C29.2001 97.6941 29.941 99.6886 29.941 99.6886C29.941 99.6886 27.5396 99.7493 26.8157 99.7059C25.6917 99.6452 21.2721 99.2463 21.1103 100.096C21.0081 100.66 25.7939 101.007 27.3182 101.267C28.851 101.527 30.6392 101.744 30.6392 101.744C30.6392 101.744 31.5078 103.799 32.1891 104.84C32.8703 105.88 34.335 108.048 34.335 108.048C34.335 108.048 28.2804 106.982 28.5018 108.031C28.6296 108.612 35.689 110.502 35.689 110.502C35.689 110.502 42.7229 115.151 43.6596 114.934C44.6304 114.708 41.2327 113.243 38.4566 110.372C36.6428 108.491 33.8411 104.736 32.0528 100.322C31.329 98.5352 28.4592 89.3257 28.6296 86.1952C28.7999 83.0299 30.0346 81.2956 31.9081 80.4284C33.7815 79.5612 40.2874 78.694 38.9675 77.6534C37.6732 76.6041 33.0236 77.7574 31.329 78.3384Z" fill="#A32916"/>
<path d="M59.3454 77.1938C59.3454 77.1938 59.0303 71.7305 58.5194 70.2389C57.1994 66.4233 57.3101 59.8413 62.7942 60.2316C68.2868 60.6218 67.0094 66.9263 65.9194 70.3083C64.838 73.6903 65.3489 77.3238 65.3489 77.3238L59.3454 77.1938Z" fill="#FF9003"/>
<path d="M49.9016 77.5753C49.9612 77.3151 49.5865 73.2827 49.9612 69.9094C50.3359 66.536 52.1327 61.2635 47.0233 60.353C41.9139 59.4424 39.768 66.4406 41.8714 71.3142C43.9747 76.1878 44.0854 78.5466 44.0854 78.5466L49.9016 77.5753Z" fill="#FF9003"/>
<path d="M36.2425 44.1712C40.33 41.2228 49.0926 38.0229 49.9442 39.6619C50.7957 41.3095 42.6292 47.1977 42.6292 47.1977C42.6292 47.1977 44.9285 51.6204 44.9285 52.8344C44.9285 54.0485 45.0136 57.0837 43.6511 58.1243C42.2886 59.1649 32.419 65.4867 32.419 65.4867C32.419 65.4867 32.3424 66.7528 31.9932 67.7414C31.312 69.6666 30.2901 70.2562 30.2901 70.2562L29.694 74.8523L33.0151 82.128L39.3933 107.259L35.6464 109.687C35.6464 109.687 29.6088 108.04 28.2463 107.953C26.8838 107.866 24.4143 107.606 23.8182 107.866C23.2221 108.126 23.0518 104.831 23.0518 104.831C23.0518 104.831 26.7987 101.883 26.7135 101.102C26.6284 100.322 24.244 100.261 22.9667 100.131C21.6893 100.001 18.4363 100.521 18.1127 100.001C17.7892 99.4805 17.8573 97.5293 19.1346 96.9483C20.412 96.3673 24.7549 94.5462 24.8145 94.0258C24.8742 93.5055 20.4545 92.5776 17.6018 91.6671C14.8427 90.7826 13.344 90.2796 11.2832 89.7419C9.8015 89.3517 7.77478 89.4211 7.77478 89.4211L10.8404 85.328L25.2659 87.019C25.2659 87.019 18.5045 81.6858 17.4826 80.7145C16.4607 79.7433 15.507 78.7026 15.507 78.7026C15.507 78.7026 16.7162 77.8615 17.8062 78.1216C18.8962 78.3818 25.334 83.8451 25.334 83.8451C25.334 83.8451 25.2063 81.7638 25.7172 80.8533C26.2281 79.9427 26.7987 79.7519 26.7987 79.7519C26.7987 79.7519 27.7524 80.5324 28.076 80.0728C28.3911 79.6219 26.671 77.7314 26.0323 76.0404C25.3936 74.3494 25.3936 73.248 25.3936 73.248C25.3936 73.248 22.2002 72.4676 21.6893 68.175C21.1784 63.8824 25.9642 61.0294 25.9642 61.0294L36.2425 44.1712Z" fill="#FA1C1F"/>
<path d="M59.4731 39.8613C58.8344 42.4195 64.4547 47.9435 64.4547 47.9435L64.327 50.0248C64.327 50.0248 62.411 55.0978 63.816 56.9102C65.2211 58.7313 70.901 60.2923 70.901 60.2923L77.6028 67.1777C77.6028 67.1777 79.6466 69.84 80.4726 70.6899C81.2986 71.531 76.581 77.5753 76.581 77.5753L74.154 97.0697L76.1978 107.667L86.2377 106.695C86.2377 106.695 85.5139 104.684 85.1988 103.704C84.8837 102.732 81.5626 99.7406 81.5626 99.7406C81.5626 99.7406 83.0273 98.119 85.582 97.9889C88.1367 97.8588 90.6914 98.9602 90.3678 97.9889C90.0527 97.0177 88.7753 94.9971 88.7753 94.9971L83.155 92.7251C83.155 92.7251 86.1525 90.8433 88.1963 90.0628C90.24 89.2823 96.8737 87.5913 97.7678 87.2705C98.662 86.9496 101.6 87.7214 100.638 86.0391C99.6839 84.3481 94.5745 84.3481 94.5745 84.3481L83.5978 85.3887C83.5978 85.3887 85.8289 82.9866 88.2559 81.2262C90.6828 79.4745 94.6341 76.6127 94.6341 76.6127L91.3896 75.6328L82.5845 78.8154C82.5845 78.8154 80.6089 80.1769 80.6089 79.2663C80.6089 78.3558 84.3557 76.8209 85.6331 73.9591C86.5442 71.9126 85.7778 71.0107 85.7778 71.0107C85.7778 71.0107 87.6939 70.0395 87.8216 66.9783C87.9493 63.9258 85.5905 60.6738 85.5905 60.6738L66.7539 41.0581C66.7539 41.0581 59.9499 37.9795 59.4731 39.8613Z" fill="#FA1C1F"/>
<path d="M29.0979 70.976C26.8923 71.982 27.6332 74.7916 28.076 76.0231C28.5188 77.2545 29.8643 79.7953 29.8643 79.7953C29.8643 79.7953 28.5869 82.3275 28.2719 83.4375C27.9568 84.5388 27.25 89.0916 28.5869 93.5142C29.9239 97.9369 32.9299 104.632 33.6963 105.863C34.4627 107.094 37.0174 111.777 42.5015 114.439C47.9855 117.102 54.6873 117.006 59.669 116.651C66.0472 116.2 72.0507 112.228 73.1322 110.606C74.2137 108.985 76.581 107.745 77.918 102.871C79.2549 97.9976 80.6004 90.6525 80.2172 85.5188C79.834 80.385 78.0457 78.1737 78.0457 78.1737C78.0457 78.1737 80.3449 77.0724 81.6819 75.2513C83.0188 73.4302 83.6405 71.3056 81.784 70.5945C79.9362 69.8834 77.0409 71.8692 76.317 72.8491C75.21 74.3407 74.5969 75.9016 74.5969 75.9016C74.5969 75.9016 60.6142 75.7716 54.1764 76.0924C43.898 76.6127 38.414 77.8442 38.414 77.8442L34.0114 78.0349C34.0114 78.0349 33.824 68.8254 29.0979 70.976Z" fill="#FF5F00"/>
<path d="M6.97419 82.605C5.77349 81.7031 7.65544 79.0495 10.934 76.7948C14.2125 74.5401 16.1711 73.803 17.6528 74.0632C19.143 74.3234 23.1879 76.9683 24.9677 78.1823C26.492 79.223 28.1185 80.0902 28.1611 80.3503C28.2036 80.6105 27.3691 80.4284 26.4579 81.9546C25.9726 82.7784 25.4361 84.4261 25.5638 84.3394C25.6915 84.2527 17.6102 79.2056 16.929 79.2056C16.2477 79.2056 12.6711 81.0874 11.479 81.521C10.2953 81.9546 7.95349 83.3421 6.97419 82.605Z" fill="#FF5F00"/>
<path d="M0.357611 95.448C0.67269 96.2112 2.10331 96.402 4.78574 94.5375C7.46816 92.6731 11.0362 88.7707 11.76 88.5626C12.4839 88.3545 17.9253 89.343 20.9058 89.7766C23.8863 90.2102 25.632 90.6438 25.632 90.6438L25.4191 87.0884C25.4191 87.0884 16.9971 84.6169 14.1444 84.27C11.2917 83.9231 10.9936 83.4028 9.41824 84.0966C7.84285 84.7903 4.26628 89.1696 3.2955 90.375C2.32472 91.5804 0.0169863 94.6329 0.357611 95.448Z" fill="#FF5F00"/>
<path d="M17.5932 93.9825C15.7197 94.3727 10.108 99.0555 9.08608 100.825C8.0642 102.602 5.67983 108.274 5.12631 110.398C4.5728 112.523 5.80756 112.566 7.08491 112.046C8.36225 111.526 11.5982 106.453 12.1943 105.594C12.7904 104.727 15.558 102.472 16.4095 101.692C17.2611 100.911 19.8158 98.6566 20.4119 98.5265C21.008 98.3965 27.2158 99.0902 27.5139 98.7433C27.8119 98.3965 27.3862 96.9222 26.9178 96.0984C26.4494 95.2746 24.8996 94.3467 24.8996 94.3467C24.8996 94.3467 19.0323 93.679 17.5932 93.9825Z" fill="#FF5F00"/>
<path d="M27.3777 101.995C25.3765 101.475 21.2976 102.862 20.1479 103.556C18.9983 104.25 17.7636 106.158 17.1249 108.976C16.4862 111.795 15.6772 116.512 16.3159 116.859C16.9546 117.206 19.4667 115.992 20.4886 113.564C21.5104 111.135 22.8304 108.664 23.8522 107.84C24.8741 107.016 26.5347 106.669 28.0249 106.669H31.346C31.346 106.669 29.9835 104.155 29.6854 103.461C29.3789 102.776 28.6295 102.325 27.3777 101.995Z" fill="#FF5F00"/>
<path d="M38.397 81.9373C36.9919 80.1595 34.5224 81.6771 32.947 83.8884C31.3716 86.0998 31.0736 87.1404 31.329 91.2075C31.5845 95.2833 35.2036 95.6735 35.2462 92.7684C35.2888 89.8634 34.7778 88.9962 35.7146 87.6087C36.6513 86.2212 39.8532 83.7757 38.397 81.9373Z" fill="#FF9003"/>
<path d="M33.5856 99.0469C34.5563 100.261 37.2899 99.8707 37.5028 97.8328C37.7156 95.7949 36.3957 95.2313 34.9906 95.2313C32.981 95.2399 32.4785 97.6594 33.5856 99.0469Z" fill="#FF9003"/>
<path d="M81.3668 79.4831C81.3668 79.4831 81.9203 79.9774 82.3461 80.888C82.823 81.9113 82.9167 82.4056 83.0699 82.6224C83.2573 82.8912 90.0868 77.1157 92.0454 76.7688C94.004 76.422 98.892 79.9774 100.936 80.3243C102.545 80.5931 103.788 80.2376 102.767 78.5466C101.745 76.8556 95.8349 71.8779 93.2802 72.0947C90.3167 72.3462 81.8352 79.1363 81.3668 79.4831Z" fill="#FF5F00"/>
<path d="M83.5978 85.38C83.5978 85.38 95.2217 80.8533 97.9126 81.417C101.021 82.0674 103.805 86.3773 104.844 87.4786C106.011 88.71 109.783 92.7685 107.697 93.5402C104.197 94.8497 97.8274 86.7415 96.763 86.2212C95.6985 85.7009 95.0599 86.0044 92.1646 86.4813C89.2692 86.9583 83.2828 88.7794 83.2828 88.7794C83.2657 88.7881 83.4445 87.4786 83.4701 86.941C83.4956 86.4206 83.5978 85.38 83.5978 85.38Z" fill="#FF5F00"/>
<path d="M83.0699 92.2915C82.7889 92.5776 82.5931 94.4248 82.5164 94.8497C82.3887 95.5434 82.2184 96.6708 82.2184 96.6708C82.2184 96.6708 88.3837 96.8008 88.9798 97.061C89.5759 97.3212 91.4919 99.333 93.0673 100.747C94.2765 101.822 97.8786 105.386 97.8786 105.386C97.8786 105.386 100.604 110.893 102.264 110.936C103.925 110.979 103.925 108.638 103.158 106.513C102.392 104.389 101.285 100.79 100.859 100.365C100.433 99.9314 98.9431 97.7634 97.1548 95.9423C96.2777 95.0491 93.0673 92.2134 92.2157 92.0834C91.3642 91.9446 83.666 91.6844 83.0699 92.2915Z" fill="#FF5F00"/>
<path d="M81.5371 99.5499C81.5371 99.5499 87.4469 100.478 89.6184 102.429C90.9383 103.617 92.4882 106.999 92.7692 109.791C92.8544 110.667 93.4079 115.983 91.9602 116.2C90.5126 116.417 88.5369 113.408 87.9834 111.847C87.4299 110.286 86.4336 107.537 86.4336 107.537C86.4336 107.537 83.683 105.863 83.5383 105.802C82.5164 105.395 79.3656 105.325 79.3656 105.325C79.3656 105.325 80.4215 103.383 80.7707 102.377C81.1965 101.154 81.5371 99.5499 81.5371 99.5499Z" fill="#FF5F00"/>
<path d="M29.6769 43.8938C23.1284 48.0996 19.4411 59.5812 25.7597 64.342C32.6489 69.5452 42.1438 62.0006 46.3079 56.2859C50.4721 50.5711 52.5158 47.6227 51.247 45.8449C49.9782 44.0672 43.8469 49.5738 43.8469 49.5738C43.8469 49.5738 44.4004 51.525 44.3153 53.7797C44.2301 56.0344 44.0598 58.159 43.0805 58.159C42.1012 58.159 42.1864 54.8203 41.2497 51.9673C40.3129 49.1142 39.3336 48.7587 39.3762 47.6313C39.4188 46.504 44.3579 43.677 45.6097 42.9312C48.3091 41.3095 50.5913 39.922 49.5013 39.2716C48.6072 38.7166 39.4273 37.6413 29.6769 43.8938Z" fill="#FF5F00"/>
<path d="M26.739 59.6592C29.7024 59.3037 28.3314 56.2945 28.9956 53.8491C29.8046 50.8573 32.3593 49.2096 30.4433 47.5273C28.3399 45.6715 25.9726 49.2703 25.2062 53.164C24.7378 55.5488 24.5675 59.9194 26.739 59.6592Z" fill="#FF9003"/>
<path d="M67.9632 49.3917C68.0057 50.2156 65.8768 50.996 65.2808 53.9011C64.6847 56.8062 64.6421 59.1909 69.496 62.9112C74.3499 66.6314 80.4726 69.9701 84.6027 65.1225C88.7328 60.2749 86.8168 50.5191 79.0675 44.2406C72.7745 39.1416 64.046 37.7107 60.3502 39.0375C58.1787 39.818 62.0533 42.116 64.31 44.3707C66.9583 47.0243 67.9206 48.5679 67.9632 49.3917Z" fill="#FF5F00"/>
<path d="M58.6471 46.3392C57.8892 47.1544 58.4086 50.1982 59.8392 52.1927C60.9888 53.797 63.6713 56.572 63.6713 56.572C63.6713 56.572 63.1603 52.9732 63.501 52.1927C63.8416 51.4123 63.6713 49.7646 63.6713 49.7646C63.6713 49.7646 62.3088 48.5072 61.5424 47.8568C60.776 47.2064 59.3709 45.5587 58.6471 46.3392Z" fill="#FF5F00"/>
<path d="M67.793 52.687C66.2601 52.9472 66.754 55.4274 67.793 57.63C68.8574 59.8847 70.6031 60.882 71.6676 59.9714C72.732 59.0609 71.5398 57.0663 70.9012 55.8956C70.2625 54.7249 69.3258 52.4269 67.793 52.687Z" fill="#FF9009"/>
<path d="M65.3516 67.2994C65.9311 65.3163 65.1766 63.3377 63.6664 62.8801C62.1563 62.4225 60.4624 63.6592 59.8829 65.6423C59.3035 67.6255 60.0579 69.6041 61.5681 70.0617C63.0782 70.5192 64.7722 69.2825 65.3516 67.2994Z" fill="#322D2E"/>
<path d="M46.1808 70.1746C47.8838 69.9971 49.0967 68.1847 48.8899 66.1265C48.6831 64.0682 47.1348 62.5436 45.4318 62.721C43.7288 62.8985 42.5159 64.7109 42.7228 66.7691C42.9296 68.8274 44.4778 70.352 46.1808 70.1746Z" fill="#322D2E"/>
<path d="M66.4133 47.1024C65.8172 46.1484 63.9353 47.7007 63.1348 49.6606C62.1981 51.9586 62.1981 55.1238 63.4329 56.4159C64.6676 57.7081 63.518 53.2941 64.6676 50.9527C65.6214 49.0102 67.0094 48.0476 66.4133 47.1024Z" fill="#A62616"/>
<path d="M40.8239 46.0183C40.1597 46.6948 41.122 47.0156 41.6755 48.4465C42.229 49.8773 42.6974 50.9613 42.9954 52.739C43.2254 54.1092 43.038 58.6966 43.9747 57.3525C44.9114 56.0083 45.0988 50.3543 43.847 48.1863C42.7315 46.2785 41.5818 45.2379 40.8239 46.0183Z" fill="#A62616"/>
<path d="M69.9644 76.1705C70.1943 77.1157 73.541 76.7341 75.7125 77.9482C77.884 79.1623 79.5445 82.1974 79.4168 88.4325C79.2805 94.6762 77.4922 101.596 77.1942 102.602C76.4704 105.074 73.8731 109.401 73.4047 110.008C72.9364 110.615 71.8549 111.977 73.8305 110.572C76.002 109.028 76.811 107.797 76.811 107.797C76.811 107.797 80.6856 107.927 80.8133 107.146C80.9411 106.366 77.6625 105.976 77.6625 105.976C77.6625 105.976 78.3438 104.632 78.8973 102.897C79.4508 101.163 79.8766 99.5585 79.8766 99.5585C79.8766 99.5585 80.8559 99.5759 83.0018 99.3417C85.3607 99.0816 88.7669 98.9948 89.1927 98.3011C89.7207 97.4426 85.6843 97.6073 83.615 97.8068C81.9289 97.9629 80.1661 97.8675 80.1661 97.8675C80.1661 97.8675 80.4642 96.1591 80.6345 95.0752C80.8048 93.9912 80.907 92.647 80.907 92.647C80.907 92.647 85.0967 91.6498 86.4166 91.2162C87.7365 90.7826 92.2072 89.3344 92.1647 88.684C92.1306 88.207 88.7158 88.8141 86.3144 89.4211C84.2536 89.9414 80.9325 90.6785 80.9325 90.6785C80.9325 90.6785 81.0603 88.7273 81.1454 87.7301C81.2306 86.7328 81.1454 85.6055 81.1454 85.6055C81.1454 85.6055 82.6782 85.7789 83.5894 85.3713C84.5006 84.9637 85.8886 83.4288 86.9701 82.6657C88.1623 81.8245 91.4579 79.4571 91.245 78.8934C91.0065 78.2604 86.9701 80.6712 85.7098 81.5557C84.739 82.2408 83.3084 83.4809 82.5846 83.6109C81.8607 83.741 81.0518 83.8277 81.0518 83.8277C81.0518 83.8277 80.4557 81.2695 80.1576 80.3156C79.8596 79.3617 78.8377 77.3672 77.1771 76.3266C75.5166 75.2859 69.4535 74.0459 69.9644 76.1705Z" fill="#A62616"/>
<path d="M31.329 78.3384C28.6892 79.249 27.0712 82.024 26.8583 83.8451C26.6454 85.6662 26.7732 86.3599 26.7732 86.3599C26.7732 86.3599 23.8778 84.2787 22.7708 83.3248C22.0044 82.6657 16.8354 78.3818 16.2393 79.3791C15.6432 80.3763 21.4083 84.7123 22.0044 85.3193C22.6005 85.9263 26.688 88.8314 26.688 88.8314L27.1989 91.6064C27.1989 91.6064 25.7768 92.04 24.3718 92.1701C22.9667 92.3002 17.2101 89.8981 17.0313 91.459C16.9887 91.8232 23.7586 93.8958 24.261 93.9912C25.3425 94.208 28.0079 93.8611 28.0079 93.8611C28.0079 93.8611 28.8595 96.6534 29.0298 97.1738C29.2001 97.6941 29.941 99.6886 29.941 99.6886C29.941 99.6886 27.5396 99.7493 26.8157 99.7059C25.6917 99.6452 21.2721 99.2463 21.1103 100.096C21.0081 100.66 25.7939 101.007 27.3182 101.267C28.851 101.527 30.6392 101.744 30.6392 101.744C30.6392 101.744 31.5078 103.799 32.1891 104.84C32.8703 105.88 34.335 108.048 34.335 108.048C34.335 108.048 28.2804 106.982 28.5018 108.031C28.6296 108.612 35.689 110.502 35.689 110.502C35.689 110.502 42.7229 115.151 43.6596 114.934C44.6304 114.708 41.2327 113.243 38.4566 110.372C36.6428 108.491 33.8411 104.736 32.0528 100.322C31.329 98.5352 28.4592 89.3257 28.6296 86.1952C28.7999 83.0299 30.0346 81.2956 31.9081 80.4284C33.7815 79.5612 40.2874 78.694 38.9675 77.6534C37.6732 76.6041 33.0236 77.7574 31.329 78.3384Z" fill="#A32916"/>
</svg>
