<svg width="26" height="27" viewBox="0 0 26 27" fill="none" xmlns="http://www.w3.org/2000/svg">
<path d="M12.3604 14.603V8.97723C12.3604 8.03436 13.126 7.2696 14.07 7.2696C15.014 7.2696 15.7797 8.03436 15.7797 8.97723V14.603V11.0725C15.7797 10.1296 16.5454 9.36485 17.4894 9.36485C18.4334 9.36485 19.199 10.1296 19.199 11.0725V14.603H19.2095V13.063C19.2095 12.183 19.9752 11.4601 20.9192 11.4601C21.8527 11.4601 22.6184 12.183 22.6184 13.063V18.2801C22.6184 21.4754 19.8808 24.0421 16.472 24.0421H15.0245C13.5771 24.0421 12.2869 23.5602 11.2695 22.8373L4.26304 16.363C3.58127 15.7239 3.58127 14.6239 4.26304 13.9849C4.94481 13.3458 5.97271 13.482 6.65448 14.1211L8.94103 16.1954V4.68197C8.93054 3.80196 9.69622 3.0791 10.6402 3.0791C11.5842 3.0791 12.3499 3.80196 12.3499 4.68197V14.603" stroke="black" stroke-width="1.57222" stroke-linecap="round" stroke-linejoin="round"/>
</svg>
