<svg width="26" height="26" viewBox="0 0 26 26" fill="none" xmlns="http://www.w3.org/2000/svg">
<path d="M13.2683 23.7113C19.0571 23.7113 23.7498 19.0185 23.7498 13.2298C23.7498 7.44101 19.0571 2.74829 13.2683 2.74829C7.47958 2.74829 2.78687 7.44101 2.78687 13.2298C2.78687 19.0185 7.47958 23.7113 13.2683 23.7113Z" stroke="black" stroke-width="1.57222" stroke-miterlimit="10" stroke-linecap="round" stroke-linejoin="round"/>
<path d="M13.2787 15.3259C13.2787 14.8018 13.2787 14.8018 13.2787 14.8018C13.3101 14.0157 14.3164 13.7117 15.4064 12.391C15.7943 11.9089 16.0877 11.563 16.2659 10.976C16.5699 10.0327 16.3288 9.22564 16.2659 9.05793C16.203 8.81686 15.9096 7.98882 15.071 7.42282C14.3793 6.96164 13.7084 6.94067 13.415 6.94067C13.1634 6.94067 12.5974 6.94067 11.9895 7.25512C11.4654 7.52764 11.151 7.88401 10.9937 8.09364C10.3753 8.8483 10.1867 9.6973 10.1238 10.148" stroke="black" stroke-width="1.57222" stroke-miterlimit="10" stroke-linecap="round" stroke-linejoin="round"/>
<path d="M13.2578 19.5186H13.2778" stroke="black" stroke-width="1.57222" stroke-miterlimit="10" stroke-linecap="round"/>
</svg>
