<svg width="26" height="26" viewBox="0 0 26 26" fill="none" xmlns="http://www.w3.org/2000/svg">
<path fill-rule="evenodd" clip-rule="evenodd" d="M21.5703 21.4371H4.79991C3.64695 21.4371 2.70361 20.4938 2.70361 19.3408V6.76304C2.70361 5.61008 3.64695 4.66675 4.79991 4.66675H21.5703C22.7232 4.66675 23.6666 5.61008 23.6666 6.76304V19.3408C23.6666 20.4938 22.7232 21.4371 21.5703 21.4371Z" stroke="black" stroke-width="1.57222" stroke-miterlimit="10" stroke-linecap="round" stroke-linejoin="round"/>
<path d="M7.94439 9.90758C8.52326 9.90758 8.99254 9.4383 8.99254 8.85943C8.99254 8.28055 8.52326 7.81128 7.94439 7.81128C7.36551 7.81128 6.89624 8.28055 6.89624 8.85943C6.89624 9.4383 7.36551 9.90758 7.94439 9.90758Z" stroke="black" stroke-width="1.57222" stroke-miterlimit="10" stroke-linecap="round" stroke-linejoin="round"/>
<path fill-rule="evenodd" clip-rule="evenodd" d="M23.6666 16.1964L18.4258 9.90747L12.1369 18.2927L6.89621 14.1001L2.70361 17.2445V19.3408C2.70361 20.4938 3.64695 21.4371 4.79991 21.4371H21.5703C22.7232 21.4371 23.6666 20.4938 23.6666 19.3408V16.1964Z" stroke="black" stroke-width="1.57222" stroke-miterlimit="10" stroke-linecap="round" stroke-linejoin="round"/>
</svg>
