<svg width="17" height="18" viewBox="0 0 17 18" fill="none" xmlns="http://www.w3.org/2000/svg">
<g clip-path="url(#clip0_116_150)">
<path d="M8.37755 15.7246C12.2367 15.7246 15.3652 12.5961 15.3652 8.73692C15.3652 4.87775 12.2367 1.74927 8.37755 1.74927C4.51837 1.74927 1.38989 4.87775 1.38989 8.73692C1.38989 12.5961 4.51837 15.7246 8.37755 15.7246Z" stroke="black" stroke-width="1.57222" stroke-miterlimit="10" stroke-linecap="round" stroke-linejoin="round"/>
<path d="M8.29051 8.73713V8.69421L8.33721 8.7209L8.36562 8.73713L8.33721 8.75336L8.29051 8.78005V8.73713Z" stroke="black" stroke-width="1.57222"/>
<path d="M8.37765 12.9296C10.6932 12.9296 12.5702 11.0525 12.5702 8.73703C12.5702 6.42152 10.6932 4.54443 8.37765 4.54443C6.06215 4.54443 4.18506 6.42152 4.18506 8.73703C4.18506 11.0525 6.06215 12.9296 8.37765 12.9296Z" stroke="black" stroke-width="1.57222" stroke-miterlimit="10" stroke-linecap="round" stroke-linejoin="round"/>
</g>
<defs>
<clipPath id="clip0_116_150">
<rect width="16.7704" height="16.7704" fill="white" transform="translate(-0.00756836 0.351807)"/>
</clipPath>
</defs>
</svg>
