<svg width="26" height="26" viewBox="0 0 26 26" fill="none" xmlns="http://www.w3.org/2000/svg">
<path d="M5.84795 13.8458C6.42443 13.8458 6.8961 13.3741 6.8961 12.7977C6.8961 12.2212 6.42443 11.7495 5.84795 11.7495C5.27147 11.7495 4.7998 12.2212 4.7998 12.7977C4.7998 13.3741 5.27147 13.8458 5.84795 13.8458Z" stroke="black" stroke-width="1.57222" stroke-miterlimit="10" stroke-linecap="round" stroke-linejoin="round"/>
<path d="M20.522 13.8458C21.0985 13.8458 21.5702 13.3741 21.5702 12.7977C21.5702 12.2212 21.0985 11.7495 20.522 11.7495C19.9455 11.7495 19.4739 12.2212 19.4739 12.7977C19.4739 13.3741 19.9455 13.8458 20.522 13.8458Z" stroke="black" stroke-width="1.57222" stroke-miterlimit="10" stroke-linecap="round" stroke-linejoin="round"/>
<path d="M13.1851 21.1827C13.7616 21.1827 14.2333 20.7111 14.2333 20.1346C14.2333 19.5581 13.7616 19.0864 13.1851 19.0864C12.6086 19.0864 12.137 19.5581 12.137 20.1346C12.137 20.7111 12.6086 21.1827 13.1851 21.1827Z" stroke="black" stroke-width="1.57222" stroke-miterlimit="10" stroke-linecap="round" stroke-linejoin="round"/>
<path d="M13.1851 6.50865C13.7616 6.50865 14.2333 6.03698 14.2333 5.4605C14.2333 4.88402 13.7616 4.41235 13.1851 4.41235C12.6086 4.41235 12.137 4.88402 12.137 5.4605C12.137 6.03698 12.6086 6.50865 13.1851 6.50865Z" stroke="black" stroke-width="1.57222" stroke-miterlimit="10" stroke-linecap="round" stroke-linejoin="round"/>
<path d="M13.1851 13.8458C13.7616 13.8458 14.2333 13.3741 14.2333 12.7977C14.2333 12.2212 13.7616 11.7495 13.1851 11.7495C12.6086 11.7495 12.137 12.2212 12.137 12.7977C12.137 13.3741 12.6086 13.8458 13.1851 13.8458Z" stroke="black" stroke-width="1.57222" stroke-miterlimit="10" stroke-linecap="round" stroke-linejoin="round"/>
<path d="M5.84795 21.1827C6.42443 21.1827 6.8961 20.7111 6.8961 20.1346C6.8961 19.5581 6.42443 19.0864 5.84795 19.0864C5.27147 19.0864 4.7998 19.5581 4.7998 20.1346C4.7998 20.7111 5.27147 21.1827 5.84795 21.1827Z" stroke="black" stroke-width="1.57222" stroke-miterlimit="10" stroke-linecap="round" stroke-linejoin="round"/>
<path d="M20.522 21.1827C21.0985 21.1827 21.5702 20.7111 21.5702 20.1346C21.5702 19.5581 21.0985 19.0864 20.522 19.0864C19.9455 19.0864 19.4739 19.5581 19.4739 20.1346C19.4739 20.7111 19.9455 21.1827 20.522 21.1827Z" stroke="black" stroke-width="1.57222" stroke-miterlimit="10" stroke-linecap="round" stroke-linejoin="round"/>
<path d="M5.84795 6.50865C6.42443 6.50865 6.8961 6.03698 6.8961 5.4605C6.8961 4.88402 6.42443 4.41235 5.84795 4.41235C5.27147 4.41235 4.7998 4.88402 4.7998 5.4605C4.7998 6.03698 5.27147 6.50865 5.84795 6.50865Z" stroke="black" stroke-width="1.57222" stroke-miterlimit="10" stroke-linecap="round" stroke-linejoin="round"/>
<path d="M20.522 6.50865C21.0985 6.50865 21.5702 6.03698 21.5702 5.4605C21.5702 4.88402 21.0985 4.41235 20.522 4.41235C19.9455 4.41235 19.4739 4.88402 19.4739 5.4605C19.4739 6.03698 19.9455 6.50865 20.522 6.50865Z" stroke="black" stroke-width="1.57222" stroke-miterlimit="10" stroke-linecap="round" stroke-linejoin="round"/>
</svg>
