<svg width="26" height="27" viewBox="0 0 26 27" fill="none" xmlns="http://www.w3.org/2000/svg">
<path d="M21.5703 11.447V7.25439" stroke="black" stroke-width="1.57222" stroke-miterlimit="10" stroke-linecap="round" stroke-linejoin="round"/>
<path d="M21.5703 19.8322V15.6396" stroke="black" stroke-width="1.57222" stroke-miterlimit="10" stroke-linecap="round" stroke-linejoin="round"/>
<path d="M4.7998 11.447V7.25439" stroke="black" stroke-width="1.57222" stroke-miterlimit="10" stroke-linecap="round" stroke-linejoin="round"/>
<path d="M4.7998 19.8322V15.6396" stroke="black" stroke-width="1.57222" stroke-miterlimit="10" stroke-linecap="round" stroke-linejoin="round"/>
<path d="M11.7072 12.0654L6.27783 6.63599" stroke="black" stroke-width="1.57222" stroke-miterlimit="10" stroke-linecap="round" stroke-linejoin="round"/>
<path d="M20.0925 20.4506L14.6631 15.0212" stroke="black" stroke-width="1.57222" stroke-miterlimit="10" stroke-linecap="round" stroke-linejoin="round"/>
<path d="M4.79991 7.2546C5.95766 7.2546 6.89621 6.31606 6.89621 5.15831C6.89621 4.00056 5.95766 3.06201 4.79991 3.06201C3.64216 3.06201 2.70361 4.00056 2.70361 5.15831C2.70361 6.31606 3.64216 7.2546 4.79991 7.2546Z" stroke="black" stroke-width="1.57222" stroke-miterlimit="10" stroke-linecap="round" stroke-linejoin="round"/>
<path d="M21.5702 7.2546C22.7279 7.2546 23.6665 6.31606 23.6665 5.15831C23.6665 4.00056 22.7279 3.06201 21.5702 3.06201C20.4124 3.06201 19.4739 4.00056 19.4739 5.15831C19.4739 6.31606 20.4124 7.2546 21.5702 7.2546Z" stroke="black" stroke-width="1.57222" stroke-miterlimit="10" stroke-linecap="round" stroke-linejoin="round"/>
<path d="M4.79991 15.6396C5.95766 15.6396 6.89621 14.7011 6.89621 13.5433C6.89621 12.3856 5.95766 11.447 4.79991 11.447C3.64216 11.447 2.70361 12.3856 2.70361 13.5433C2.70361 14.7011 3.64216 15.6396 4.79991 15.6396Z" stroke="black" stroke-width="1.57222" stroke-miterlimit="10" stroke-linecap="round" stroke-linejoin="round"/>
<path d="M13.1852 15.6396C14.3429 15.6396 15.2815 14.7011 15.2815 13.5433C15.2815 12.3856 14.3429 11.447 13.1852 11.447C12.0274 11.447 11.0889 12.3856 11.0889 13.5433C11.0889 14.7011 12.0274 15.6396 13.1852 15.6396Z" stroke="black" stroke-width="1.57222" stroke-miterlimit="10" stroke-linecap="round" stroke-linejoin="round"/>
<path d="M21.5702 15.6396C22.7279 15.6396 23.6665 14.7011 23.6665 13.5433C23.6665 12.3856 22.7279 11.447 21.5702 11.447C20.4124 11.447 19.4739 12.3856 19.4739 13.5433C19.4739 14.7011 20.4124 15.6396 21.5702 15.6396Z" stroke="black" stroke-width="1.57222" stroke-miterlimit="10" stroke-linecap="round" stroke-linejoin="round"/>
<path d="M4.79991 24.0249C5.95766 24.0249 6.89621 23.0863 6.89621 21.9286C6.89621 20.7708 5.95766 19.8323 4.79991 19.8323C3.64216 19.8323 2.70361 20.7708 2.70361 21.9286C2.70361 23.0863 3.64216 24.0249 4.79991 24.0249Z" stroke="black" stroke-width="1.57222" stroke-miterlimit="10" stroke-linecap="round" stroke-linejoin="round"/>
<path d="M21.5702 24.0249C22.7279 24.0249 23.6665 23.0863 23.6665 21.9286C23.6665 20.7708 22.7279 19.8323 21.5702 19.8323C20.4124 19.8323 19.4739 20.7708 19.4739 21.9286C19.4739 23.0863 20.4124 24.0249 21.5702 24.0249Z" stroke="black" stroke-width="1.57222" stroke-miterlimit="10" stroke-linecap="round" stroke-linejoin="round"/>
<path d="M13.1852 7.2546C14.3429 7.2546 15.2815 6.31606 15.2815 5.15831C15.2815 4.00056 14.3429 3.06201 13.1852 3.06201C12.0274 3.06201 11.0889 4.00056 11.0889 5.15831C11.0889 6.31606 12.0274 7.2546 13.1852 7.2546Z" stroke="black" stroke-width="1.57222" stroke-miterlimit="10" stroke-linecap="round" stroke-linejoin="round"/>
<path d="M13.1852 24.0249C14.3429 24.0249 15.2815 23.0863 15.2815 21.9286C15.2815 20.7708 14.3429 19.8323 13.1852 19.8323C12.0274 19.8323 11.0889 20.7708 11.0889 21.9286C11.0889 23.0863 12.0274 24.0249 13.1852 24.0249Z" stroke="black" stroke-width="1.57222" stroke-miterlimit="10" stroke-linecap="round" stroke-linejoin="round"/>
</svg>
