<svg width="26" height="27" viewBox="0 0 26 27" fill="none" xmlns="http://www.w3.org/2000/svg">
<path d="M15.1451 6.03183L14.8201 3.46387C14.7887 3.20183 14.5686 3.00269 14.2961 3.00269H11.0363C10.7743 3.00269 10.5437 3.20183 10.5123 3.46387L10.2293 5.71739C10.2083 5.90606 10.072 6.07376 9.89385 6.13665C9.0134 6.46157 8.17488 6.96469 7.45166 7.61454L5.06188 6.60832C4.82081 6.5035 4.53781 6.59783 4.40155 6.82843L2.76644 9.65843C2.64066 9.88902 2.70355 10.1825 2.91318 10.3397L4.97803 11.9015C4.75792 12.9601 4.75792 14.0397 4.96755 15.0669H4.97803L2.91318 16.6286C2.70355 16.7858 2.64066 17.0793 2.77692 17.3099L4.41203 20.1399C4.54829 20.3705 4.83129 20.4648 5.07237 20.36L7.46214 19.3538L7.45166 19.3643C7.83948 19.7102 8.2797 20.0246 8.75137 20.2971C9.22303 20.5696 9.70518 20.7898 10.2083 20.9575V20.9365L10.5332 23.5045C10.5437 23.7665 10.7743 23.9656 11.0363 23.9656H14.3066C14.5686 23.9656 14.7887 23.7665 14.8306 23.5045L15.1136 21.2509C15.1346 21.0623 15.2708 20.8946 15.449 20.8317C16.3295 20.5068 17.168 20.0036 17.8912 19.3538L20.281 20.36C20.5221 20.4648 20.8051 20.3705 20.9413 20.1399L22.5764 17.3099C22.7127 17.0793 22.6498 16.7858 22.4402 16.6286L20.3753 15.0669C20.5954 14.0082 20.5954 12.9286 20.3858 11.9015H20.3753L22.4192 10.3397C22.6288 10.1825 22.6917 9.88902 22.5555 9.65843L20.9204 6.82843C20.7841 6.59783 20.5011 6.5035 20.26 6.60832L17.8807 7.61454L17.8912 7.60406C17.5034 7.25817 17.0632 6.94372 16.5915 6.6712C16.1198 6.39869 15.6377 6.17857 15.1346 6.01087" stroke="black" stroke-width="1.57222" stroke-miterlimit="10" stroke-linecap="round" stroke-linejoin="round"/>
<path d="M12.6714 17.6767C14.9869 17.6767 16.8639 15.7996 16.8639 13.4841C16.8639 11.1686 14.9869 9.2915 12.6714 9.2915C10.3558 9.2915 8.47876 11.1686 8.47876 13.4841C8.47876 15.7996 10.3558 17.6767 12.6714 17.6767Z" stroke="black" stroke-width="1.57222" stroke-miterlimit="10" stroke-linecap="round" stroke-linejoin="round"/>
</svg>
